<mxfile host="65bd71144e">
    <diagram id="tAm-Q1vrKD3kaD52ELMw" name="structure">
        <mxGraphModel dx="790" dy="705" grid="1" gridSize="10" guides="1" tooltips="1" connect="1" arrows="1" fold="1" page="1" pageScale="1" pageWidth="850" pageHeight="1100" math="0" shadow="0">
            <root>
                <mxCell id="zu2tDFOteG_yooguGcxT-0"/>
                <mxCell id="zu2tDFOteG_yooguGcxT-1" parent="zu2tDFOteG_yooguGcxT-0"/>
                <mxCell id="zu2tDFOteG_yooguGcxT-224" style="edgeStyle=orthogonalEdgeStyle;orthogonalLoop=1;jettySize=auto;html=1;entryX=1;entryY=0.5;entryDx=0;entryDy=0;curved=1;" parent="zu2tDFOteG_yooguGcxT-1" edge="1">
                    <mxGeometry relative="1" as="geometry">
                        <mxPoint x="1100" y="-211" as="targetPoint"/>
                    </mxGeometry>
                </mxCell>
                <mxCell id="154" value="users" style="swimlane;fontStyle=0;childLayout=stackLayout;horizontal=1;startSize=26;fillColor=#cce5ff;horizontalStack=0;resizeParent=1;resizeParentMax=0;resizeLast=0;collapsible=1;marginBottom=0;swimlaneFillColor=#ffffff;align=center;fontSize=14;strokeColor=#36393d;fontColor=#000000;rounded=1;" parent="zu2tDFOteG_yooguGcxT-1" vertex="1">
                    <mxGeometry x="20" y="30" width="162" height="186" as="geometry"/>
                </mxCell>
                <mxCell id="155" value="id" style="shape=partialRectangle;top=0;left=0;right=0;bottom=1;align=left;verticalAlign=middle;fillColor=#f5f5f5;spacingLeft=34;spacingRight=4;overflow=hidden;rotatable=0;points=[[0,0.5],[1,0.5]];portConstraint=eastwest;dropTarget=0;fontStyle=5;fontSize=12;fontColor=#333333;strokeColor=#666666;rounded=1;" parent="154" vertex="1">
                    <mxGeometry y="26" width="162" height="30" as="geometry"/>
                </mxCell>
                <mxCell id="156" value="PK" style="shape=partialRectangle;top=0;left=0;bottom=0;fillColor=#f5f5f5;align=left;verticalAlign=middle;spacingLeft=4;spacingRight=4;overflow=hidden;rotatable=0;points=[];portConstraint=eastwest;part=1;fontSize=12;fontColor=#333333;strokeColor=#666666;rounded=1;" parent="155" vertex="1" connectable="0">
                    <mxGeometry width="30" height="30" as="geometry"/>
                </mxCell>
                <mxCell id="157" value="name" style="shape=partialRectangle;top=0;left=0;right=0;bottom=0;align=left;verticalAlign=top;fillColor=#f5f5f5;spacingLeft=34;spacingRight=4;overflow=hidden;rotatable=0;points=[[0,0.5],[1,0.5]];portConstraint=eastwest;dropTarget=0;fontSize=12;fontColor=#333333;strokeColor=#666666;rounded=1;" parent="154" vertex="1">
                    <mxGeometry y="56" width="162" height="26" as="geometry"/>
                </mxCell>
                <mxCell id="158" value="" style="shape=partialRectangle;top=0;left=0;bottom=0;fillColor=#f5f5f5;align=left;verticalAlign=top;spacingLeft=4;spacingRight=4;overflow=hidden;rotatable=0;points=[];portConstraint=eastwest;part=1;fontSize=12;fontColor=#333333;strokeColor=#666666;rounded=1;" parent="157" vertex="1" connectable="0">
                    <mxGeometry width="30" height="26" as="geometry"/>
                </mxCell>
                <mxCell id="159" value="email" style="shape=partialRectangle;top=0;left=0;right=0;bottom=0;align=left;verticalAlign=top;fillColor=#f5f5f5;spacingLeft=34;spacingRight=4;overflow=hidden;rotatable=0;points=[[0,0.5],[1,0.5]];portConstraint=eastwest;dropTarget=0;fontSize=12;fontColor=#333333;strokeColor=#666666;rounded=1;" parent="154" vertex="1">
                    <mxGeometry y="82" width="162" height="26" as="geometry"/>
                </mxCell>
                <mxCell id="160" value="" style="shape=partialRectangle;top=0;left=0;bottom=0;fillColor=#f5f5f5;align=left;verticalAlign=top;spacingLeft=4;spacingRight=4;overflow=hidden;rotatable=0;points=[];portConstraint=eastwest;part=1;fontSize=12;fontColor=#333333;strokeColor=#666666;rounded=1;" parent="159" vertex="1" connectable="0">
                    <mxGeometry width="30" height="26" as="geometry"/>
                </mxCell>
                <mxCell id="161" value="phone" style="shape=partialRectangle;top=0;left=0;right=0;bottom=0;align=left;verticalAlign=top;fillColor=#f5f5f5;spacingLeft=34;spacingRight=4;overflow=hidden;rotatable=0;points=[[0,0.5],[1,0.5]];portConstraint=eastwest;dropTarget=0;fontSize=12;fontColor=#333333;strokeColor=#666666;rounded=1;" parent="154" vertex="1">
                    <mxGeometry y="108" width="162" height="26" as="geometry"/>
                </mxCell>
                <mxCell id="162" value="" style="shape=partialRectangle;top=0;left=0;bottom=0;fillColor=#f5f5f5;align=left;verticalAlign=top;spacingLeft=4;spacingRight=4;overflow=hidden;rotatable=0;points=[];portConstraint=eastwest;part=1;fontSize=12;fontColor=#333333;strokeColor=#666666;rounded=1;" parent="161" vertex="1" connectable="0">
                    <mxGeometry width="30" height="26" as="geometry"/>
                </mxCell>
                <mxCell id="169" value="created_at" style="shape=partialRectangle;top=0;left=0;right=0;bottom=0;align=left;verticalAlign=top;fillColor=#f5f5f5;spacingLeft=34;spacingRight=4;overflow=hidden;rotatable=0;points=[[0,0.5],[1,0.5]];portConstraint=eastwest;dropTarget=0;fontSize=12;fontColor=#333333;strokeColor=#666666;rounded=1;" parent="154" vertex="1">
                    <mxGeometry y="134" width="162" height="26" as="geometry"/>
                </mxCell>
                <mxCell id="170" value="" style="shape=partialRectangle;top=0;left=0;bottom=0;fillColor=#f5f5f5;align=left;verticalAlign=top;spacingLeft=4;spacingRight=4;overflow=hidden;rotatable=0;points=[];portConstraint=eastwest;part=1;fontSize=12;fontColor=#333333;strokeColor=#666666;rounded=1;" parent="169" vertex="1" connectable="0">
                    <mxGeometry width="30" height="26" as="geometry"/>
                </mxCell>
                <mxCell id="171" value="updated_at" style="shape=partialRectangle;top=0;left=0;right=0;bottom=0;align=left;verticalAlign=top;fillColor=#f5f5f5;spacingLeft=34;spacingRight=4;overflow=hidden;rotatable=0;points=[[0,0.5],[1,0.5]];portConstraint=eastwest;dropTarget=0;fontSize=12;fontColor=#333333;strokeColor=#666666;rounded=1;" parent="154" vertex="1">
                    <mxGeometry y="160" width="162" height="26" as="geometry"/>
                </mxCell>
                <mxCell id="172" value="" style="shape=partialRectangle;top=0;left=0;bottom=0;fillColor=#f5f5f5;align=left;verticalAlign=top;spacingLeft=4;spacingRight=4;overflow=hidden;rotatable=0;points=[];portConstraint=eastwest;part=1;fontSize=12;fontColor=#333333;strokeColor=#666666;rounded=1;" parent="171" vertex="1" connectable="0">
                    <mxGeometry width="30" height="26" as="geometry"/>
                </mxCell>
                <mxCell id="173" value="jobs" style="swimlane;fontStyle=0;childLayout=stackLayout;horizontal=1;startSize=26;fillColor=#f5f5f5;horizontalStack=0;resizeParent=1;resizeParentMax=0;resizeLast=0;collapsible=1;marginBottom=0;swimlaneFillColor=#ffffff;align=center;fontSize=14;fontColor=#333333;strokeColor=#666666;rounded=1;" parent="zu2tDFOteG_yooguGcxT-1" vertex="1">
                    <mxGeometry x="20" y="410" width="160" height="212" as="geometry"/>
                </mxCell>
                <mxCell id="174" value="id" style="shape=partialRectangle;top=0;left=0;right=0;bottom=1;align=left;verticalAlign=middle;fillColor=#f5f5f5;spacingLeft=34;spacingRight=4;overflow=hidden;rotatable=0;points=[[0,0.5],[1,0.5]];portConstraint=eastwest;dropTarget=0;fontStyle=5;fontSize=12;fontColor=#333333;strokeColor=#666666;rounded=1;" parent="173" vertex="1">
                    <mxGeometry y="26" width="160" height="30" as="geometry"/>
                </mxCell>
                <mxCell id="175" value="PK" style="shape=partialRectangle;top=0;left=0;bottom=0;fillColor=#f5f5f5;align=left;verticalAlign=middle;spacingLeft=4;spacingRight=4;overflow=hidden;rotatable=0;points=[];portConstraint=eastwest;part=1;fontSize=12;fontColor=#333333;strokeColor=#666666;rounded=1;" parent="174" vertex="1" connectable="0">
                    <mxGeometry width="30" height="30" as="geometry"/>
                </mxCell>
                <mxCell id="176" value="queue" style="shape=partialRectangle;top=0;left=0;right=0;bottom=0;align=left;verticalAlign=top;fillColor=#f5f5f5;spacingLeft=34;spacingRight=4;overflow=hidden;rotatable=0;points=[[0,0.5],[1,0.5]];portConstraint=eastwest;dropTarget=0;fontSize=12;fontColor=#333333;strokeColor=#666666;rounded=1;" parent="173" vertex="1">
                    <mxGeometry y="56" width="160" height="26" as="geometry"/>
                </mxCell>
                <mxCell id="177" value="" style="shape=partialRectangle;top=0;left=0;bottom=0;fillColor=#f5f5f5;align=left;verticalAlign=top;spacingLeft=4;spacingRight=4;overflow=hidden;rotatable=0;points=[];portConstraint=eastwest;part=1;fontSize=12;fontColor=#333333;strokeColor=#666666;rounded=1;" parent="176" vertex="1" connectable="0">
                    <mxGeometry width="30" height="26" as="geometry"/>
                </mxCell>
                <mxCell id="178" value="payload" style="shape=partialRectangle;top=0;left=0;right=0;bottom=0;align=left;verticalAlign=top;fillColor=#f5f5f5;spacingLeft=34;spacingRight=4;overflow=hidden;rotatable=0;points=[[0,0.5],[1,0.5]];portConstraint=eastwest;dropTarget=0;fontSize=12;fontColor=#333333;strokeColor=#666666;rounded=1;" parent="173" vertex="1">
                    <mxGeometry y="82" width="160" height="26" as="geometry"/>
                </mxCell>
                <mxCell id="179" value="" style="shape=partialRectangle;top=0;left=0;bottom=0;fillColor=#f5f5f5;align=left;verticalAlign=top;spacingLeft=4;spacingRight=4;overflow=hidden;rotatable=0;points=[];portConstraint=eastwest;part=1;fontSize=12;fontColor=#333333;strokeColor=#666666;rounded=1;" parent="178" vertex="1" connectable="0">
                    <mxGeometry width="30" height="26" as="geometry"/>
                </mxCell>
                <mxCell id="180" value="attempts" style="shape=partialRectangle;top=0;left=0;right=0;bottom=0;align=left;verticalAlign=top;fillColor=#f5f5f5;spacingLeft=34;spacingRight=4;overflow=hidden;rotatable=0;points=[[0,0.5],[1,0.5]];portConstraint=eastwest;dropTarget=0;fontSize=12;fontColor=#333333;strokeColor=#666666;rounded=1;" parent="173" vertex="1">
                    <mxGeometry y="108" width="160" height="26" as="geometry"/>
                </mxCell>
                <mxCell id="181" value="" style="shape=partialRectangle;top=0;left=0;bottom=0;fillColor=#f5f5f5;align=left;verticalAlign=top;spacingLeft=4;spacingRight=4;overflow=hidden;rotatable=0;points=[];portConstraint=eastwest;part=1;fontSize=12;fontColor=#333333;strokeColor=#666666;rounded=1;" parent="180" vertex="1" connectable="0">
                    <mxGeometry width="30" height="26" as="geometry"/>
                </mxCell>
                <mxCell id="182" value="reserved_at" style="shape=partialRectangle;top=0;left=0;right=0;bottom=0;align=left;verticalAlign=top;fillColor=#f5f5f5;spacingLeft=34;spacingRight=4;overflow=hidden;rotatable=0;points=[[0,0.5],[1,0.5]];portConstraint=eastwest;dropTarget=0;fontSize=12;fontColor=#333333;strokeColor=#666666;rounded=1;" parent="173" vertex="1">
                    <mxGeometry y="134" width="160" height="26" as="geometry"/>
                </mxCell>
                <mxCell id="183" value="" style="shape=partialRectangle;top=0;left=0;bottom=0;fillColor=#f5f5f5;align=left;verticalAlign=top;spacingLeft=4;spacingRight=4;overflow=hidden;rotatable=0;points=[];portConstraint=eastwest;part=1;fontSize=12;fontColor=#333333;strokeColor=#666666;rounded=1;" parent="182" vertex="1" connectable="0">
                    <mxGeometry width="30" height="26" as="geometry"/>
                </mxCell>
                <mxCell id="184" value="available_at" style="shape=partialRectangle;top=0;left=0;right=0;bottom=0;align=left;verticalAlign=top;fillColor=#f5f5f5;spacingLeft=34;spacingRight=4;overflow=hidden;rotatable=0;points=[[0,0.5],[1,0.5]];portConstraint=eastwest;dropTarget=0;fontSize=12;fontColor=#333333;strokeColor=#666666;rounded=1;" parent="173" vertex="1">
                    <mxGeometry y="160" width="160" height="26" as="geometry"/>
                </mxCell>
                <mxCell id="185" value="" style="shape=partialRectangle;top=0;left=0;bottom=0;fillColor=#f5f5f5;align=left;verticalAlign=top;spacingLeft=4;spacingRight=4;overflow=hidden;rotatable=0;points=[];portConstraint=eastwest;part=1;fontSize=12;fontColor=#333333;strokeColor=#666666;rounded=1;" parent="184" vertex="1" connectable="0">
                    <mxGeometry width="30" height="26" as="geometry"/>
                </mxCell>
                <mxCell id="186" value="created_at" style="shape=partialRectangle;top=0;left=0;right=0;bottom=0;align=left;verticalAlign=top;fillColor=#f5f5f5;spacingLeft=34;spacingRight=4;overflow=hidden;rotatable=0;points=[[0,0.5],[1,0.5]];portConstraint=eastwest;dropTarget=0;fontSize=12;fontColor=#333333;strokeColor=#666666;rounded=1;" parent="173" vertex="1">
                    <mxGeometry y="186" width="160" height="26" as="geometry"/>
                </mxCell>
                <mxCell id="187" value="" style="shape=partialRectangle;top=0;left=0;bottom=0;fillColor=#f5f5f5;align=left;verticalAlign=top;spacingLeft=4;spacingRight=4;overflow=hidden;rotatable=0;points=[];portConstraint=eastwest;part=1;fontSize=12;fontColor=#333333;strokeColor=#666666;rounded=1;" parent="186" vertex="1" connectable="0">
                    <mxGeometry width="30" height="26" as="geometry"/>
                </mxCell>
                <mxCell id="199" value="failed_jobs" style="swimlane;fontStyle=0;childLayout=stackLayout;horizontal=1;startSize=26;fillColor=#f5f5f5;horizontalStack=0;resizeParent=1;resizeParentMax=0;resizeLast=0;collapsible=1;marginBottom=0;swimlaneFillColor=#ffffff;align=center;fontSize=14;fontColor=#333333;strokeColor=#666666;rounded=1;" parent="zu2tDFOteG_yooguGcxT-1" vertex="1">
                    <mxGeometry x="20" y="628" width="160" height="186" as="geometry"/>
                </mxCell>
                <mxCell id="200" value="id" style="shape=partialRectangle;top=0;left=0;right=0;bottom=1;align=left;verticalAlign=middle;fillColor=#f5f5f5;spacingLeft=34;spacingRight=4;overflow=hidden;rotatable=0;points=[[0,0.5],[1,0.5]];portConstraint=eastwest;dropTarget=0;fontStyle=5;fontSize=12;fontColor=#333333;strokeColor=#666666;rounded=1;" parent="199" vertex="1">
                    <mxGeometry y="26" width="160" height="30" as="geometry"/>
                </mxCell>
                <mxCell id="201" value="PK" style="shape=partialRectangle;top=0;left=0;bottom=0;fillColor=#f5f5f5;align=left;verticalAlign=middle;spacingLeft=4;spacingRight=4;overflow=hidden;rotatable=0;points=[];portConstraint=eastwest;part=1;fontSize=12;fontColor=#333333;strokeColor=#666666;rounded=1;" parent="200" vertex="1" connectable="0">
                    <mxGeometry width="30" height="30" as="geometry"/>
                </mxCell>
                <mxCell id="202" value="connection" style="shape=partialRectangle;top=0;left=0;right=0;bottom=0;align=left;verticalAlign=top;fillColor=#f5f5f5;spacingLeft=34;spacingRight=4;overflow=hidden;rotatable=0;points=[[0,0.5],[1,0.5]];portConstraint=eastwest;dropTarget=0;fontSize=12;fontColor=#333333;strokeColor=#666666;rounded=1;" parent="199" vertex="1">
                    <mxGeometry y="56" width="160" height="26" as="geometry"/>
                </mxCell>
                <mxCell id="203" value="" style="shape=partialRectangle;top=0;left=0;bottom=0;fillColor=#f5f5f5;align=left;verticalAlign=top;spacingLeft=4;spacingRight=4;overflow=hidden;rotatable=0;points=[];portConstraint=eastwest;part=1;fontSize=12;fontColor=#333333;strokeColor=#666666;rounded=1;" parent="202" vertex="1" connectable="0">
                    <mxGeometry width="30" height="26" as="geometry"/>
                </mxCell>
                <mxCell id="204" value="queue" style="shape=partialRectangle;top=0;left=0;right=0;bottom=0;align=left;verticalAlign=top;fillColor=#f5f5f5;spacingLeft=34;spacingRight=4;overflow=hidden;rotatable=0;points=[[0,0.5],[1,0.5]];portConstraint=eastwest;dropTarget=0;fontSize=12;fontColor=#333333;strokeColor=#666666;rounded=1;" parent="199" vertex="1">
                    <mxGeometry y="82" width="160" height="26" as="geometry"/>
                </mxCell>
                <mxCell id="205" value="" style="shape=partialRectangle;top=0;left=0;bottom=0;fillColor=#f5f5f5;align=left;verticalAlign=top;spacingLeft=4;spacingRight=4;overflow=hidden;rotatable=0;points=[];portConstraint=eastwest;part=1;fontSize=12;fontColor=#333333;strokeColor=#666666;rounded=1;" parent="204" vertex="1" connectable="0">
                    <mxGeometry width="30" height="26" as="geometry"/>
                </mxCell>
                <mxCell id="206" value="payload" style="shape=partialRectangle;top=0;left=0;right=0;bottom=0;align=left;verticalAlign=top;fillColor=#f5f5f5;spacingLeft=34;spacingRight=4;overflow=hidden;rotatable=0;points=[[0,0.5],[1,0.5]];portConstraint=eastwest;dropTarget=0;fontSize=12;fontColor=#333333;strokeColor=#666666;rounded=1;" parent="199" vertex="1">
                    <mxGeometry y="108" width="160" height="26" as="geometry"/>
                </mxCell>
                <mxCell id="207" value="" style="shape=partialRectangle;top=0;left=0;bottom=0;fillColor=#f5f5f5;align=left;verticalAlign=top;spacingLeft=4;spacingRight=4;overflow=hidden;rotatable=0;points=[];portConstraint=eastwest;part=1;fontSize=12;fontColor=#333333;strokeColor=#666666;rounded=1;" parent="206" vertex="1" connectable="0">
                    <mxGeometry width="30" height="26" as="geometry"/>
                </mxCell>
                <mxCell id="208" value="exception" style="shape=partialRectangle;top=0;left=0;right=0;bottom=0;align=left;verticalAlign=top;fillColor=#f5f5f5;spacingLeft=34;spacingRight=4;overflow=hidden;rotatable=0;points=[[0,0.5],[1,0.5]];portConstraint=eastwest;dropTarget=0;fontSize=12;fontColor=#333333;strokeColor=#666666;rounded=1;" parent="199" vertex="1">
                    <mxGeometry y="134" width="160" height="26" as="geometry"/>
                </mxCell>
                <mxCell id="209" value="" style="shape=partialRectangle;top=0;left=0;bottom=0;fillColor=#f5f5f5;align=left;verticalAlign=top;spacingLeft=4;spacingRight=4;overflow=hidden;rotatable=0;points=[];portConstraint=eastwest;part=1;fontSize=12;fontColor=#333333;strokeColor=#666666;rounded=1;" parent="208" vertex="1" connectable="0">
                    <mxGeometry width="30" height="26" as="geometry"/>
                </mxCell>
                <mxCell id="210" value="failed_at" style="shape=partialRectangle;top=0;left=0;right=0;bottom=0;align=left;verticalAlign=top;fillColor=#f5f5f5;spacingLeft=34;spacingRight=4;overflow=hidden;rotatable=0;points=[[0,0.5],[1,0.5]];portConstraint=eastwest;dropTarget=0;fontSize=12;fontColor=#333333;strokeColor=#666666;rounded=1;" parent="199" vertex="1">
                    <mxGeometry y="160" width="160" height="26" as="geometry"/>
                </mxCell>
                <mxCell id="211" value="" style="shape=partialRectangle;top=0;left=0;bottom=0;fillColor=#f5f5f5;align=left;verticalAlign=top;spacingLeft=4;spacingRight=4;overflow=hidden;rotatable=0;points=[];portConstraint=eastwest;part=1;fontSize=12;fontColor=#333333;strokeColor=#666666;rounded=1;" parent="210" vertex="1" connectable="0">
                    <mxGeometry width="30" height="26" as="geometry"/>
                </mxCell>
                <mxCell id="217" value="notifications" style="swimlane;fontStyle=0;childLayout=stackLayout;horizontal=1;startSize=26;fillColor=#f5f5f5;horizontalStack=0;resizeParent=1;resizeParentMax=0;resizeLast=0;collapsible=1;marginBottom=0;swimlaneFillColor=#ffffff;align=center;fontSize=14;fontColor=#333333;strokeColor=#666666;rounded=1;" parent="zu2tDFOteG_yooguGcxT-1" vertex="1">
                    <mxGeometry x="20" y="230" width="160" height="160" as="geometry"/>
                </mxCell>
                <mxCell id="218" value="id" style="shape=partialRectangle;top=0;left=0;right=0;bottom=1;align=left;verticalAlign=middle;fillColor=#f5f5f5;spacingLeft=34;spacingRight=4;overflow=hidden;rotatable=0;points=[[0,0.5],[1,0.5]];portConstraint=eastwest;dropTarget=0;fontStyle=5;fontSize=12;fontColor=#333333;strokeColor=#666666;rounded=1;" parent="217" vertex="1">
                    <mxGeometry y="26" width="160" height="30" as="geometry"/>
                </mxCell>
                <mxCell id="219" value="PK" style="shape=partialRectangle;top=0;left=0;bottom=0;fillColor=#f5f5f5;align=left;verticalAlign=middle;spacingLeft=4;spacingRight=4;overflow=hidden;rotatable=0;points=[];portConstraint=eastwest;part=1;fontSize=12;fontColor=#333333;strokeColor=#666666;rounded=1;" parent="218" vertex="1" connectable="0">
                    <mxGeometry width="30" height="30" as="geometry"/>
                </mxCell>
                <mxCell id="220" value="type" style="shape=partialRectangle;top=0;left=0;right=0;bottom=0;align=left;verticalAlign=top;fillColor=#f5f5f5;spacingLeft=34;spacingRight=4;overflow=hidden;rotatable=0;points=[[0,0.5],[1,0.5]];portConstraint=eastwest;dropTarget=0;fontSize=12;fontColor=#333333;strokeColor=#666666;rounded=1;" parent="217" vertex="1">
                    <mxGeometry y="56" width="160" height="26" as="geometry"/>
                </mxCell>
                <mxCell id="221" value="" style="shape=partialRectangle;top=0;left=0;bottom=0;fillColor=#f5f5f5;align=left;verticalAlign=top;spacingLeft=4;spacingRight=4;overflow=hidden;rotatable=0;points=[];portConstraint=eastwest;part=1;fontSize=12;fontColor=#333333;strokeColor=#666666;rounded=1;" parent="220" vertex="1" connectable="0">
                    <mxGeometry width="30" height="26" as="geometry"/>
                </mxCell>
                <mxCell id="222" value="notifiable_id" style="shape=partialRectangle;top=0;left=0;right=0;bottom=0;align=left;verticalAlign=top;fillColor=#f5f5f5;spacingLeft=34;spacingRight=4;overflow=hidden;rotatable=0;points=[[0,0.5],[1,0.5]];portConstraint=eastwest;dropTarget=0;fontSize=12;fontColor=#333333;strokeColor=#666666;rounded=1;" parent="217" vertex="1">
                    <mxGeometry y="82" width="160" height="26" as="geometry"/>
                </mxCell>
                <mxCell id="223" value="" style="shape=partialRectangle;top=0;left=0;bottom=0;fillColor=#f5f5f5;align=left;verticalAlign=top;spacingLeft=4;spacingRight=4;overflow=hidden;rotatable=0;points=[];portConstraint=eastwest;part=1;fontSize=12;fontColor=#333333;strokeColor=#666666;rounded=1;" parent="222" vertex="1" connectable="0">
                    <mxGeometry width="30" height="26" as="geometry"/>
                </mxCell>
                <mxCell id="224" value="notifiable_type" style="shape=partialRectangle;top=0;left=0;right=0;bottom=0;align=left;verticalAlign=top;fillColor=#f5f5f5;spacingLeft=34;spacingRight=4;overflow=hidden;rotatable=0;points=[[0,0.5],[1,0.5]];portConstraint=eastwest;dropTarget=0;fontSize=12;fontColor=#333333;strokeColor=#666666;rounded=1;" parent="217" vertex="1">
                    <mxGeometry y="108" width="160" height="26" as="geometry"/>
                </mxCell>
                <mxCell id="225" value="" style="shape=partialRectangle;top=0;left=0;bottom=0;fillColor=#f5f5f5;align=left;verticalAlign=top;spacingLeft=4;spacingRight=4;overflow=hidden;rotatable=0;points=[];portConstraint=eastwest;part=1;fontSize=12;fontColor=#333333;strokeColor=#666666;rounded=1;" parent="224" vertex="1" connectable="0">
                    <mxGeometry width="30" height="26" as="geometry"/>
                </mxCell>
                <mxCell id="226" value="read_at" style="shape=partialRectangle;top=0;left=0;right=0;bottom=0;align=left;verticalAlign=top;fillColor=#f5f5f5;spacingLeft=34;spacingRight=4;overflow=hidden;rotatable=0;points=[[0,0.5],[1,0.5]];portConstraint=eastwest;dropTarget=0;fontSize=12;fontColor=#333333;strokeColor=#666666;rounded=1;" parent="217" vertex="1">
                    <mxGeometry y="134" width="160" height="26" as="geometry"/>
                </mxCell>
                <mxCell id="227" value="" style="shape=partialRectangle;top=0;left=0;bottom=0;fillColor=#f5f5f5;align=left;verticalAlign=top;spacingLeft=4;spacingRight=4;overflow=hidden;rotatable=0;points=[];portConstraint=eastwest;part=1;fontSize=12;fontColor=#333333;strokeColor=#666666;rounded=1;" parent="226" vertex="1" connectable="0">
                    <mxGeometry width="30" height="26" as="geometry"/>
                </mxCell>
                <mxCell id="328" value="ads" style="swimlane;fontStyle=0;childLayout=stackLayout;horizontal=1;startSize=26;fillColor=#cce5ff;horizontalStack=0;resizeParent=1;resizeParentMax=0;resizeLast=0;collapsible=1;marginBottom=0;swimlaneFillColor=#ffffff;align=center;fontSize=14;strokeColor=#36393d;fontColor=#000000;rounded=1;" parent="zu2tDFOteG_yooguGcxT-1" vertex="1">
                    <mxGeometry x="290" y="30" width="162" height="290" as="geometry"/>
                </mxCell>
                <mxCell id="329" value="id" style="shape=partialRectangle;top=0;left=0;right=0;bottom=1;align=left;verticalAlign=middle;fillColor=#f5f5f5;spacingLeft=34;spacingRight=4;overflow=hidden;rotatable=0;points=[[0,0.5],[1,0.5]];portConstraint=eastwest;dropTarget=0;fontStyle=5;fontSize=12;fontColor=#333333;strokeColor=#666666;rounded=1;" parent="328" vertex="1">
                    <mxGeometry y="26" width="162" height="30" as="geometry"/>
                </mxCell>
                <mxCell id="330" value="PK" style="shape=partialRectangle;top=0;left=0;bottom=0;fillColor=#f5f5f5;align=left;verticalAlign=middle;spacingLeft=4;spacingRight=4;overflow=hidden;rotatable=0;points=[];portConstraint=eastwest;part=1;fontSize=12;fontColor=#333333;strokeColor=#666666;rounded=1;" parent="329" vertex="1" connectable="0">
                    <mxGeometry width="30" height="30" as="geometry"/>
                </mxCell>
                <mxCell id="331" value="name" style="shape=partialRectangle;top=0;left=0;right=0;bottom=0;align=left;verticalAlign=top;fillColor=#f5f5f5;spacingLeft=34;spacingRight=4;overflow=hidden;rotatable=0;points=[[0,0.5],[1,0.5]];portConstraint=eastwest;dropTarget=0;fontSize=12;fontColor=#333333;strokeColor=#666666;rounded=1;" parent="328" vertex="1">
                    <mxGeometry y="56" width="162" height="26" as="geometry"/>
                </mxCell>
                <mxCell id="332" value="" style="shape=partialRectangle;top=0;left=0;bottom=0;fillColor=#f5f5f5;align=left;verticalAlign=top;spacingLeft=4;spacingRight=4;overflow=hidden;rotatable=0;points=[];portConstraint=eastwest;part=1;fontSize=12;fontColor=#333333;strokeColor=#666666;rounded=1;" parent="331" vertex="1" connectable="0">
                    <mxGeometry width="30" height="26" as="geometry"/>
                </mxCell>
                <mxCell id="470" value="advertiser_id" style="shape=partialRectangle;top=0;left=0;right=0;bottom=0;align=left;verticalAlign=top;fillColor=#f5f5f5;spacingLeft=34;spacingRight=4;overflow=hidden;rotatable=0;points=[[0,0.5],[1,0.5]];portConstraint=eastwest;dropTarget=0;fontSize=12;fontColor=#333333;strokeColor=#666666;rounded=1;" parent="328" vertex="1">
                    <mxGeometry y="82" width="162" height="26" as="geometry"/>
                </mxCell>
                <mxCell id="471" value="" style="shape=partialRectangle;top=0;left=0;bottom=0;fillColor=#f5f5f5;align=left;verticalAlign=top;spacingLeft=4;spacingRight=4;overflow=hidden;rotatable=0;points=[];portConstraint=eastwest;part=1;fontSize=12;fontColor=#333333;strokeColor=#666666;rounded=1;" parent="470" vertex="1" connectable="0">
                    <mxGeometry width="30" height="26" as="geometry"/>
                </mxCell>
                <mxCell id="602" value="category_id" style="shape=partialRectangle;top=0;left=0;right=0;bottom=0;align=left;verticalAlign=top;fillColor=#f5f5f5;spacingLeft=34;spacingRight=4;overflow=hidden;rotatable=0;points=[[0,0.5],[1,0.5]];portConstraint=eastwest;dropTarget=0;fontSize=12;fontColor=#333333;strokeColor=#666666;rounded=1;" vertex="1" parent="328">
                    <mxGeometry y="108" width="162" height="26" as="geometry"/>
                </mxCell>
                <mxCell id="603" value="" style="shape=partialRectangle;top=0;left=0;bottom=0;fillColor=#f5f5f5;align=left;verticalAlign=top;spacingLeft=4;spacingRight=4;overflow=hidden;rotatable=0;points=[];portConstraint=eastwest;part=1;fontSize=12;fontColor=#333333;strokeColor=#666666;rounded=1;" vertex="1" connectable="0" parent="602">
                    <mxGeometry width="30" height="26" as="geometry"/>
                </mxCell>
                <mxCell id="351" value="address" style="shape=partialRectangle;top=0;left=0;right=0;bottom=0;align=left;verticalAlign=top;fillColor=#f5f5f5;spacingLeft=34;spacingRight=4;overflow=hidden;rotatable=0;points=[[0,0.5],[1,0.5]];portConstraint=eastwest;dropTarget=0;fontSize=12;fontColor=#333333;strokeColor=#666666;rounded=1;" parent="328" vertex="1">
                    <mxGeometry y="134" width="162" height="26" as="geometry"/>
                </mxCell>
                <mxCell id="352" value="" style="shape=partialRectangle;top=0;left=0;bottom=0;fillColor=#f5f5f5;align=left;verticalAlign=top;spacingLeft=4;spacingRight=4;overflow=hidden;rotatable=0;points=[];portConstraint=eastwest;part=1;fontSize=12;fontColor=#333333;strokeColor=#666666;rounded=1;" parent="351" vertex="1" connectable="0">
                    <mxGeometry width="30" height="26" as="geometry"/>
                </mxCell>
                <mxCell id="337" value="data" style="shape=partialRectangle;top=0;left=0;right=0;bottom=0;align=left;verticalAlign=top;fillColor=#f5f5f5;spacingLeft=34;spacingRight=4;overflow=hidden;rotatable=0;points=[[0,0.5],[1,0.5]];portConstraint=eastwest;dropTarget=0;fontSize=12;fontColor=#333333;strokeColor=#666666;rounded=1;" parent="328" vertex="1">
                    <mxGeometry y="160" width="162" height="26" as="geometry"/>
                </mxCell>
                <mxCell id="338" value="array" style="shape=partialRectangle;top=0;left=0;bottom=0;fillColor=#f5f5f5;align=left;verticalAlign=top;spacingLeft=4;spacingRight=4;overflow=hidden;rotatable=0;points=[];portConstraint=eastwest;part=1;fontSize=12;fontColor=#333333;strokeColor=#666666;rounded=1;" parent="337" vertex="1" connectable="0">
                    <mxGeometry width="30" height="26" as="geometry"/>
                </mxCell>
                <mxCell id="339" value="order" style="shape=partialRectangle;top=0;left=0;right=0;bottom=0;align=left;verticalAlign=top;fillColor=#f5f5f5;spacingLeft=34;spacingRight=4;overflow=hidden;rotatable=0;points=[[0,0.5],[1,0.5]];portConstraint=eastwest;dropTarget=0;fontSize=12;fontColor=#333333;strokeColor=#666666;rounded=1;" parent="328" vertex="1">
                    <mxGeometry y="186" width="162" height="26" as="geometry"/>
                </mxCell>
                <mxCell id="340" value="" style="shape=partialRectangle;top=0;left=0;bottom=0;fillColor=#f5f5f5;align=left;verticalAlign=top;spacingLeft=4;spacingRight=4;overflow=hidden;rotatable=0;points=[];portConstraint=eastwest;part=1;fontSize=12;fontColor=#333333;strokeColor=#666666;rounded=1;" parent="339" vertex="1" connectable="0">
                    <mxGeometry width="30" height="26" as="geometry"/>
                </mxCell>
                <mxCell id="604" value="status ( yes, no )" style="shape=partialRectangle;top=0;left=0;right=0;bottom=0;align=left;verticalAlign=top;fillColor=#f5f5f5;spacingLeft=34;spacingRight=4;overflow=hidden;rotatable=0;points=[[0,0.5],[1,0.5]];portConstraint=eastwest;dropTarget=0;fontSize=12;fontColor=#333333;strokeColor=#666666;rounded=1;" vertex="1" parent="328">
                    <mxGeometry y="212" width="162" height="26" as="geometry"/>
                </mxCell>
                <mxCell id="605" value="enum" style="shape=partialRectangle;top=0;left=0;bottom=0;fillColor=#f5f5f5;align=left;verticalAlign=top;spacingLeft=4;spacingRight=4;overflow=hidden;rotatable=0;points=[];portConstraint=eastwest;part=1;fontSize=12;fontColor=#333333;strokeColor=#666666;rounded=1;" vertex="1" connectable="0" parent="604">
                    <mxGeometry width="30" height="26" as="geometry"/>
                </mxCell>
                <mxCell id="343" value="created_at" style="shape=partialRectangle;top=0;left=0;right=0;bottom=0;align=left;verticalAlign=top;fillColor=#f5f5f5;spacingLeft=34;spacingRight=4;overflow=hidden;rotatable=0;points=[[0,0.5],[1,0.5]];portConstraint=eastwest;dropTarget=0;fontSize=12;fontColor=#333333;strokeColor=#666666;rounded=1;" parent="328" vertex="1">
                    <mxGeometry y="238" width="162" height="26" as="geometry"/>
                </mxCell>
                <mxCell id="344" value="" style="shape=partialRectangle;top=0;left=0;bottom=0;fillColor=#f5f5f5;align=left;verticalAlign=top;spacingLeft=4;spacingRight=4;overflow=hidden;rotatable=0;points=[];portConstraint=eastwest;part=1;fontSize=12;fontColor=#333333;strokeColor=#666666;rounded=1;" parent="343" vertex="1" connectable="0">
                    <mxGeometry width="30" height="26" as="geometry"/>
                </mxCell>
                <mxCell id="345" value="updated_at" style="shape=partialRectangle;top=0;left=0;right=0;bottom=0;align=left;verticalAlign=top;fillColor=#f5f5f5;spacingLeft=34;spacingRight=4;overflow=hidden;rotatable=0;points=[[0,0.5],[1,0.5]];portConstraint=eastwest;dropTarget=0;fontSize=12;fontColor=#333333;strokeColor=#666666;rounded=1;" parent="328" vertex="1">
                    <mxGeometry y="264" width="162" height="26" as="geometry"/>
                </mxCell>
                <mxCell id="346" value="" style="shape=partialRectangle;top=0;left=0;bottom=0;fillColor=#f5f5f5;align=left;verticalAlign=top;spacingLeft=4;spacingRight=4;overflow=hidden;rotatable=0;points=[];portConstraint=eastwest;part=1;fontSize=12;fontColor=#333333;strokeColor=#666666;rounded=1;" parent="345" vertex="1" connectable="0">
                    <mxGeometry width="30" height="26" as="geometry"/>
                </mxCell>
                <mxCell id="473" style="edgeStyle=orthogonalEdgeStyle;orthogonalLoop=1;jettySize=auto;html=1;entryX=1;entryY=0.5;entryDx=0;entryDy=0;labelBackgroundColor=#2A2A2A;curved=1;" parent="zu2tDFOteG_yooguGcxT-1" target="231" edge="1">
                    <mxGeometry relative="1" as="geometry">
                        <mxPoint x="771" y="-443" as="sourcePoint"/>
                    </mxGeometry>
                </mxCell>
                <mxCell id="475" style="edgeStyle=orthogonalEdgeStyle;orthogonalLoop=1;jettySize=auto;html=1;labelBackgroundColor=#2A2A2A;curved=1;" parent="zu2tDFOteG_yooguGcxT-1" target="238" edge="1">
                    <mxGeometry relative="1" as="geometry">
                        <mxPoint x="770" y="-248" as="sourcePoint"/>
                    </mxGeometry>
                </mxCell>
                <mxCell id="476" style="edgeStyle=orthogonalEdgeStyle;orthogonalLoop=1;jettySize=auto;html=1;entryX=1;entryY=0.5;entryDx=0;entryDy=0;labelBackgroundColor=#2A2A2A;curved=1;" parent="zu2tDFOteG_yooguGcxT-1" target="236" edge="1">
                    <mxGeometry relative="1" as="geometry">
                        <mxPoint x="771" y="-443" as="sourcePoint"/>
                    </mxGeometry>
                </mxCell>
                <mxCell id="511" value="filters" style="swimlane;fontStyle=0;childLayout=stackLayout;horizontal=1;startSize=26;horizontalStack=0;resizeParent=1;resizeParentMax=0;resizeLast=0;collapsible=1;marginBottom=0;swimlaneFillColor=#ffffff;align=center;fontSize=14;fillColor=#cce5ff;strokeColor=#36393d;fontColor=#000000;rounded=1;" parent="zu2tDFOteG_yooguGcxT-1" vertex="1">
                    <mxGeometry x="580" y="95" width="162" height="160" as="geometry">
                        <mxRectangle x="500" y="340" width="60" height="26" as="alternateBounds"/>
                    </mxGeometry>
                </mxCell>
                <mxCell id="512" value="id" style="shape=partialRectangle;top=0;left=0;right=0;bottom=1;align=left;verticalAlign=middle;fillColor=#f5f5f5;spacingLeft=34;spacingRight=4;overflow=hidden;rotatable=0;points=[[0,0.5],[1,0.5]];portConstraint=eastwest;dropTarget=0;fontStyle=5;fontSize=12;fontColor=#333333;strokeColor=#666666;rounded=1;" parent="511" vertex="1">
                    <mxGeometry y="26" width="162" height="30" as="geometry"/>
                </mxCell>
                <mxCell id="513" value="PK" style="shape=partialRectangle;top=0;left=0;bottom=0;fillColor=#f5f5f5;align=left;verticalAlign=middle;spacingLeft=4;spacingRight=4;overflow=hidden;rotatable=0;points=[];portConstraint=eastwest;part=1;fontSize=12;fontColor=#333333;strokeColor=#666666;rounded=1;" parent="512" vertex="1" connectable="0">
                    <mxGeometry width="30" height="30" as="geometry"/>
                </mxCell>
                <mxCell id="514" value="name" style="shape=partialRectangle;top=0;left=0;right=0;bottom=0;align=left;verticalAlign=top;fillColor=#f5f5f5;spacingLeft=34;spacingRight=4;overflow=hidden;rotatable=0;points=[[0,0.5],[1,0.5]];portConstraint=eastwest;dropTarget=0;fontSize=12;fontColor=#333333;strokeColor=#666666;rounded=1;" parent="511" vertex="1">
                    <mxGeometry y="56" width="162" height="26" as="geometry"/>
                </mxCell>
                <mxCell id="515" value="" style="shape=partialRectangle;top=0;left=0;bottom=0;fillColor=#f5f5f5;align=left;verticalAlign=top;spacingLeft=4;spacingRight=4;overflow=hidden;rotatable=0;points=[];portConstraint=eastwest;part=1;fontSize=12;fontColor=#333333;strokeColor=#666666;rounded=1;" parent="514" vertex="1" connectable="0">
                    <mxGeometry width="30" height="26" as="geometry"/>
                </mxCell>
                <mxCell id="538" value="type ( tags, categories )" style="shape=partialRectangle;top=0;left=0;right=0;bottom=0;align=left;verticalAlign=top;fillColor=#f5f5f5;spacingLeft=34;spacingRight=4;overflow=hidden;rotatable=0;points=[[0,0.5],[1,0.5]];portConstraint=eastwest;dropTarget=0;fontSize=12;fontColor=#333333;strokeColor=#666666;rounded=1;" parent="511" vertex="1">
                    <mxGeometry y="82" width="162" height="26" as="geometry"/>
                </mxCell>
                <mxCell id="539" value="enum" style="shape=partialRectangle;top=0;left=0;bottom=0;fillColor=#f5f5f5;align=left;verticalAlign=top;spacingLeft=4;spacingRight=4;overflow=hidden;rotatable=0;points=[];portConstraint=eastwest;part=1;fontSize=12;fontColor=#333333;strokeColor=#666666;rounded=1;" parent="538" vertex="1" connectable="0">
                    <mxGeometry width="30" height="26" as="geometry"/>
                </mxCell>
                <mxCell id="520" value="created_at" style="shape=partialRectangle;top=0;left=0;right=0;bottom=0;align=left;verticalAlign=top;fillColor=#f5f5f5;spacingLeft=34;spacingRight=4;overflow=hidden;rotatable=0;points=[[0,0.5],[1,0.5]];portConstraint=eastwest;dropTarget=0;fontSize=12;fontColor=#333333;strokeColor=#666666;rounded=1;" parent="511" vertex="1">
                    <mxGeometry y="108" width="162" height="26" as="geometry"/>
                </mxCell>
                <mxCell id="521" value="" style="shape=partialRectangle;top=0;left=0;bottom=0;fillColor=#f5f5f5;align=left;verticalAlign=top;spacingLeft=4;spacingRight=4;overflow=hidden;rotatable=0;points=[];portConstraint=eastwest;part=1;fontSize=12;fontColor=#333333;strokeColor=#666666;rounded=1;" parent="520" vertex="1" connectable="0">
                    <mxGeometry width="30" height="26" as="geometry"/>
                </mxCell>
                <mxCell id="522" value="updated_at" style="shape=partialRectangle;top=0;left=0;right=0;bottom=0;align=left;verticalAlign=top;fillColor=#f5f5f5;spacingLeft=34;spacingRight=4;overflow=hidden;rotatable=0;points=[[0,0.5],[1,0.5]];portConstraint=eastwest;dropTarget=0;fontSize=12;fontColor=#333333;strokeColor=#666666;rounded=1;" parent="511" vertex="1">
                    <mxGeometry y="134" width="162" height="26" as="geometry"/>
                </mxCell>
                <mxCell id="523" value="" style="shape=partialRectangle;top=0;left=0;bottom=0;fillColor=#f5f5f5;align=left;verticalAlign=top;spacingLeft=4;spacingRight=4;overflow=hidden;rotatable=0;points=[];portConstraint=eastwest;part=1;fontSize=12;fontColor=#333333;strokeColor=#666666;rounded=1;" parent="522" vertex="1" connectable="0">
                    <mxGeometry width="30" height="26" as="geometry"/>
                </mxCell>
                <mxCell id="524" value="tag_ad" style="swimlane;fontStyle=0;childLayout=stackLayout;horizontal=1;startSize=26;fillColor=#cce5ff;horizontalStack=0;resizeParent=1;resizeParentMax=0;resizeLast=0;collapsible=1;marginBottom=0;swimlaneFillColor=#ffffff;align=center;fontSize=14;strokeColor=#36393d;fontColor=#000000;rounded=1;" parent="zu2tDFOteG_yooguGcxT-1" vertex="1">
                    <mxGeometry x="290" y="341" width="162" height="78" as="geometry"/>
                </mxCell>
                <mxCell id="525" value="filter_id" style="shape=partialRectangle;top=0;left=0;right=0;bottom=0;align=left;verticalAlign=top;fillColor=#f5f5f5;spacingLeft=34;spacingRight=4;overflow=hidden;rotatable=0;points=[[0,0.5],[1,0.5]];portConstraint=eastwest;dropTarget=0;fontSize=12;fontColor=#333333;strokeColor=#666666;rounded=1;" parent="524" vertex="1">
                    <mxGeometry y="26" width="162" height="26" as="geometry"/>
                </mxCell>
                <mxCell id="526" value="FK" style="shape=partialRectangle;top=0;left=0;bottom=0;fillColor=#f5f5f5;align=left;verticalAlign=top;spacingLeft=4;spacingRight=4;overflow=hidden;rotatable=0;points=[];portConstraint=eastwest;part=1;fontSize=12;fontColor=#333333;strokeColor=#666666;rounded=1;" parent="525" vertex="1" connectable="0">
                    <mxGeometry width="30" height="26" as="geometry"/>
                </mxCell>
                <mxCell id="527" value="ad_id" style="shape=partialRectangle;top=0;left=0;right=0;bottom=0;align=left;verticalAlign=top;fillColor=#f5f5f5;spacingLeft=34;spacingRight=4;overflow=hidden;rotatable=0;points=[[0,0.5],[1,0.5]];portConstraint=eastwest;dropTarget=0;fontSize=12;fontColor=#333333;strokeColor=#666666;rounded=1;" parent="524" vertex="1">
                    <mxGeometry y="52" width="162" height="26" as="geometry"/>
                </mxCell>
                <mxCell id="528" value="FK" style="shape=partialRectangle;top=0;left=0;bottom=0;fillColor=#f5f5f5;align=left;verticalAlign=top;spacingLeft=4;spacingRight=4;overflow=hidden;rotatable=0;points=[];portConstraint=eastwest;part=1;fontSize=12;fontColor=#333333;strokeColor=#666666;rounded=1;" parent="527" vertex="1" connectable="0">
                    <mxGeometry width="30" height="26" as="geometry"/>
                </mxCell>
                <mxCell id="529" style="edgeStyle=orthogonalEdgeStyle;orthogonalLoop=1;jettySize=auto;html=1;curved=1;" parent="zu2tDFOteG_yooguGcxT-1" source="512" target="525" edge="1">
                    <mxGeometry relative="1" as="geometry"/>
                </mxCell>
                <mxCell id="597" style="edgeStyle=orthogonalEdgeStyle;curved=1;html=1;entryX=0;entryY=0.5;entryDx=0;entryDy=0;" edge="1" parent="zu2tDFOteG_yooguGcxT-1" source="155" target="470">
                    <mxGeometry relative="1" as="geometry"/>
                </mxCell>
                <mxCell id="598" style="edgeStyle=orthogonalEdgeStyle;curved=1;html=1;entryX=0;entryY=0.5;entryDx=0;entryDy=0;exitX=0;exitY=0.5;exitDx=0;exitDy=0;" edge="1" parent="zu2tDFOteG_yooguGcxT-1" source="329" target="527">
                    <mxGeometry relative="1" as="geometry">
                        <Array as="points">
                            <mxPoint x="250" y="71"/>
                            <mxPoint x="250" y="406"/>
                        </Array>
                    </mxGeometry>
                </mxCell>
                <mxCell id="601" style="edgeStyle=orthogonalEdgeStyle;curved=1;html=1;strokeColor=#f0f0f0;entryX=1;entryY=0.5;entryDx=0;entryDy=0;" edge="1" parent="zu2tDFOteG_yooguGcxT-1" source="512" target="602">
                    <mxGeometry relative="1" as="geometry">
                        <mxPoint x="520" y="150" as="targetPoint"/>
                    </mxGeometry>
                </mxCell>
            </root>
        </mxGraphModel>
    </diagram>
</mxfile>